<svg width="49" height="50" viewBox="0 0 49 50" fill="none" xmlns="http://www.w3.org/2000/svg">
<path d="M47.855 25.4677C47.855 23.4193 47.6921 21.9244 47.3396 20.3742H24.4158V29.62H37.8716C37.6004 31.9178 36.1354 35.3781 32.8799 37.7032L32.8343 38.0128L40.0824 43.7424L40.5845 43.7935C45.1963 39.4473 47.855 33.0527 47.855 25.4677Z" fill="#4285F4"/>
<path d="M24.4159 49.8283C31.008 49.8283 36.5422 47.6136 40.5845 43.7935L32.8799 37.7033C30.8182 39.1704 28.051 40.1947 24.4159 40.1947C17.9593 40.1947 12.4793 35.8487 10.5259 29.8416L10.2395 29.8664L2.70287 35.8181L2.60431 36.0977C6.61932 44.2363 14.8665 49.8283 24.4159 49.8283Z" fill="#34A853"/>
<path d="M10.5258 29.8416C10.0104 28.2914 9.7121 26.6303 9.7121 24.9141C9.7121 23.1977 10.0104 21.5368 10.4987 19.9866L10.4851 19.6565L2.85397 13.6092L2.60429 13.7303C0.949515 17.1076 0 20.9002 0 24.9141C0 28.9281 0.949515 32.7204 2.60429 36.0977L10.5258 29.8416Z" fill="#FBBC05"/>
<path d="M24.4159 9.6334C29.0005 9.6334 32.0931 11.6542 33.8566 13.3429L40.7473 6.47767C36.5153 2.46374 31.008 0 24.4159 0C14.8665 0 6.61932 5.59179 2.60431 13.7303L10.4987 19.9866C12.4793 13.9796 17.9593 9.6334 24.4159 9.6334Z" fill="#EB4335"/>
</svg>
